HIERARCHY
ROOT Root
{
  OFFSET 0.0 0.0 0.0
  CHANNELS 6 Xposition Yposition Zposition Zrotation Yrotation Xrotation
  JOINT Hips
  {
    OFFSET 0.0 100.0 0.0
    CHANNELS 6 Xposition Yposition Zposition Zrotation Yrotation Xrotation
    JOINT Spine1
    {
      OFFSET -0.013727 5.003763 -0.053727
      CHANNELS 3 Zrotation Yrotation Xrotation
      JOINT Spine2
      {
        OFFSET -0.0 7.125301 -0.029825
        CHANNELS 3 Zrotation Yrotation Xrotation
        JOINT Chest
        {
          OFFSET -1e-06 7.550063 -0.815971
          CHANNELS 3 Zrotation Yrotation Xrotation
          JOINT Neck1
          {
            OFFSET -0.181677 26.311295 -0.553348
            CHANNELS 3 Zrotation Yrotation Xrotation
            JOINT Neck2
            {
              OFFSET -3e-06 7.709397 2.302585
              CHANNELS 3 Zrotation Yrotation Xrotation
              JOINT Head
              {
                OFFSET -5e-06 6.128916 1.953709
                CHANNELS 3 Zrotation Yrotation Xrotation
                JOINT HeadEnd
                {
                  OFFSET 0.003598 16.065403 -1.835379
                  CHANNELS 3 Zrotation Yrotation Xrotation
                }
                JOINT Jaw
                {
                  OFFSET 0.002637 0.475592 3.094941
                  CHANNELS 3 Zrotation Yrotation Xrotation
                }
                JOINT LeftEye
                {
                  OFFSET 3.206381 5.380205 7.586883
                  CHANNELS 3 Zrotation Yrotation Xrotation
                }
                JOINT RightEye
                {
                  OFFSET -3.22244 5.361869 7.558234
                  CHANNELS 3 Zrotation Yrotation Xrotation
                }
              }
            }
          }
          JOINT LeftShoulder
          {
            OFFSET 1.621652 23.237164 5.113413
            CHANNELS 3 Zrotation Yrotation Xrotation
            JOINT LeftArm
            {
              OFFSET 14.919846 2e-06 -5.502326
              CHANNELS 3 Zrotation Yrotation Xrotation
              JOINT LeftForeArm
              {
                OFFSET 28.739307 0.0 -0.002588
                CHANNELS 3 Zrotation Yrotation Xrotation
                JOINT LeftHand
                {
                  OFFSET 27.093981 -1e-06 0.002609
                  CHANNELS 3 Zrotation Yrotation Xrotation
                  JOINT LeftHandThumb1
                  {
                    OFFSET 2.276482 -1.392045 3.191413
                    CHANNELS 3 Zrotation Yrotation Xrotation
                    JOINT LeftHandThumb2
                    {
                      OFFSET 4.012836 -1.828127 1.641654
                      CHANNELS 3 Zrotation Yrotation Xrotation
                      JOINT LeftHandThumb3
                      {
                        OFFSET 2.798515 0.0 -3e-06
                        CHANNELS 3 Zrotation Yrotation Xrotation
                        JOINT LeftHandThumbEnd
                        {
                          OFFSET 3.180793 -4e-06 4e-06
                          CHANNELS 3 Zrotation Yrotation Xrotation
                        }
                      }
                    }
                  }
                  JOINT LeftHandIndex1
                  {
                    OFFSET 3.247555 -0.531998 2.296169
                    CHANNELS 3 Zrotation Yrotation Xrotation
                    JOINT LeftHandIndex2
                    {
                      OFFSET 6.364578 0.01206 0.1786
                      CHANNELS 3 Zrotation Yrotation Xrotation
                      JOINT LeftHandIndex3
                      {
                        OFFSET 3.662364 0.0 0.0
                        CHANNELS 3 Zrotation Yrotation Xrotation
                        JOINT LeftHandIndex4
                        {
                          OFFSET 2.329242 4e-06 4e-06
                          CHANNELS 3 Zrotation Yrotation Xrotation
                          JOINT LeftHandIndexEnd
                          {
                            OFFSET 2.759615 -0.180537 -0.113024
                            CHANNELS 3 Zrotation Yrotation Xrotation
                          }
                        }
                      }
                    }
                  }
                  JOINT LeftHandMiddle1
                  {
                    OFFSET 3.163495 0.240981 1.000332
                    CHANNELS 3 Zrotation Yrotation Xrotation
                    JOINT LeftHandMiddle2
                    {
                      OFFSET 6.19078 -0.259278 -1.002548
                      CHANNELS 3 Zrotation Yrotation Xrotation
                      JOINT LeftHandMiddle3
                      {
                        OFFSET 4.35652 -4e-06 -1e-06
                        CHANNELS 3 Zrotation Yrotation Xrotation
                        JOINT LeftHandMiddle4
                        {
                          OFFSET 2.996877 -8e-06 0.0
                          CHANNELS 3 Zrotation Yrotation Xrotation
                          JOINT LeftHandMiddleEnd
                          {
                            OFFSET 2.304287 -0.294569 -0.031741
                            CHANNELS 3 Zrotation Yrotation Xrotation
                          }
                        }
                      }
                    }
                  }
                  JOINT LeftHandRing1
                  {
                    OFFSET 2.882643 -0.053652 -0.322543
                    CHANNELS 3 Zrotation Yrotation Xrotation
                    JOINT LeftHandRing2
                    {
                      OFFSET 5.854541 -0.486202 -1.373841
                      CHANNELS 3 Zrotation Yrotation Xrotation
                      JOINT LeftHandRing3
                      {
                        OFFSET 4.350578 0.0 3e-06
                        CHANNELS 3 Zrotation Yrotation Xrotation
                        JOINT LeftHandRing4
                        {
                          OFFSET 2.651321 7e-06 2e-06
                          CHANNELS 3 Zrotation Yrotation Xrotation
                          JOINT LeftHandRingEnd
                          {
                            OFFSET 1.936105 0.077687 -7.1e-05
                            CHANNELS 3 Zrotation Yrotation Xrotation
                          }
                        }
                      }
                    }
                  }
                  JOINT LeftHandPinky1
                  {
                    OFFSET 2.8655 -0.310005 -1.600378
                    CHANNELS 3 Zrotation Yrotation Xrotation
                    JOINT LeftHandPinky2
                    {
                      OFFSET 5.087849 -1.331141 -1.77123
                      CHANNELS 3 Zrotation Yrotation Xrotation
                      JOINT LeftHandPinky3
                      {
                        OFFSET 3.070974 4e-06 0.0
                        CHANNELS 3 Zrotation Yrotation Xrotation
                        JOINT LeftHandPinky4
                        {
                          OFFSET 1.549672 0.0 1e-06
                          CHANNELS 3 Zrotation Yrotation Xrotation
                          JOINT LeftHandPinkyEnd
                          {
                            OFFSET 1.944893 -0.157802 0.057219
                            CHANNELS 3 Zrotation Yrotation Xrotation
                          }
                        }
                      }
                    }
                  }
                }
              }
            }
          }
          JOINT RightShoulder
          {
            OFFSET -1.380118 23.180309 5.214158
            CHANNELS 3 Zrotation Yrotation Xrotation
            JOINT RightArm
            {
              OFFSET -15.037196 1.2e-05 -5.545604
              CHANNELS 3 Zrotation Yrotation Xrotation
              JOINT RightForeArm
              {
                OFFSET -28.736639 2e-06 -0.002597
                CHANNELS 3 Zrotation Yrotation Xrotation
                JOINT RightHand
                {
                  OFFSET -27.133619 -0.0 0.002613
                  CHANNELS 3 Zrotation Yrotation Xrotation
                  JOINT RightHandThumb1
                  {
                    OFFSET -2.274032 -1.383988 3.163127
                    CHANNELS 3 Zrotation Yrotation Xrotation
                    JOINT RightHandThumb2
                    {
                      OFFSET -4.011429 -1.827466 1.640914
                      CHANNELS 3 Zrotation Yrotation Xrotation
                      JOINT RightHandThumb3
                      {
                        OFFSET -2.794935 -4e-06 -3e-06
                        CHANNELS 3 Zrotation Yrotation Xrotation
                        JOINT RightHandThumbEnd
                        {
                          OFFSET -3.183852 4e-06 1e-06
                          CHANNELS 3 Zrotation Yrotation Xrotation
                        }
                      }
                    }
                  }
                  JOINT RightHandIndex1
                  {
                    OFFSET -3.253266 -0.520057 2.282866
                    CHANNELS 3 Zrotation Yrotation Xrotation
                    JOINT RightHandIndex2
                    {
                      OFFSET -6.341917 0.012471 0.178266
                      CHANNELS 3 Zrotation Yrotation Xrotation
                      JOINT RightHandIndex3
                      {
                        OFFSET -3.654871 -8e-06 -0.0
                        CHANNELS 3 Zrotation Yrotation Xrotation
                        JOINT RightHandIndex4
                        {
                          OFFSET -2.327586 0.0 1e-06
                          CHANNELS 3 Zrotation Yrotation Xrotation
                          JOINT RightHandIndexEnd
                          {
                            OFFSET -2.76179 -0.180656 -0.113078
                            CHANNELS 3 Zrotation Yrotation Xrotation
                          }
                        }
                      }
                    }
                  }
                  JOINT RightHandMiddle1
                  {
                    OFFSET -3.168106 0.246593 1.00103
                    CHANNELS 3 Zrotation Yrotation Xrotation
                    JOINT RightHandMiddle2
                    {
                      OFFSET -6.180828 -0.258836 -1.000895
                      CHANNELS 3 Zrotation Yrotation Xrotation
                      JOINT RightHandMiddle3
                      {
                        OFFSET -4.348901 0.0 -0.0
                        CHANNELS 3 Zrotation Yrotation Xrotation
                        JOINT RightHandMiddle4
                        {
                          OFFSET -3.00024 -4e-06 -2e-06
                          CHANNELS 3 Zrotation Yrotation Xrotation
                          JOINT RightHandMiddleEnd
                          {
                            OFFSET -2.30252 -0.29437 -0.031706
                            CHANNELS 3 Zrotation Yrotation Xrotation
                          }
                        }
                      }
                    }
                  }
                  JOINT RightHandRing1
                  {
                    OFFSET -2.88569 -0.067952 -0.308858
                    CHANNELS 3 Zrotation Yrotation Xrotation
                    JOINT RightHandRing2
                    {
                      OFFSET -5.854198 -0.48613 -1.373731
                      CHANNELS 3 Zrotation Yrotation Xrotation
                      JOINT RightHandRing3
                      {
                        OFFSET -4.33881 -4e-06 -0.0
                        CHANNELS 3 Zrotation Yrotation Xrotation
                        JOINT RightHandRing4
                        {
                          OFFSET -2.654903 -4e-06 4e-06
                          CHANNELS 3 Zrotation Yrotation Xrotation
                          JOINT RightHandRingEnd
                          {
                            OFFSET -1.933568 0.077527 -5.2e-05
                            CHANNELS 3 Zrotation Yrotation Xrotation
                          }
                        }
                      }
                    }
                  }
                  JOINT RightHandPinky1
                  {
                    OFFSET -2.866425 -0.342796 -1.584145
                    CHANNELS 3 Zrotation Yrotation Xrotation
                    JOINT RightHandPinky2
                    {
                      OFFSET -5.091371 -1.332055 -1.772385
                      CHANNELS 3 Zrotation Yrotation Xrotation
                      JOINT RightHandPinky3
                      {
                        OFFSET -3.062664 -4e-06 1e-06
                        CHANNELS 3 Zrotation Yrotation Xrotation
                        JOINT RightHandPinky4
                        {
                          OFFSET -1.546529 4e-06 -2e-06
                          CHANNELS 3 Zrotation Yrotation Xrotation
                          JOINT RightHandPinkyEnd
                          {
                            OFFSET -1.945119 -0.157718 0.057211
                            CHANNELS 3 Zrotation Yrotation Xrotation
                          }
                        }
                      }
                    }
                  }
                }
              }
            }
          }
        }
      }
    }
    JOINT LeftLeg
    {
      OFFSET 10.043214 -8.434526 2.595655
      CHANNELS 3 Zrotation Yrotation Xrotation
      JOINT LeftShin
      {
        OFFSET -1e-06 -43.221752 -0.802913
        CHANNELS 3 Zrotation Yrotation Xrotation
        JOINT LeftFoot
        {
          OFFSET 1e-06 -42.155094 -3.481523
          CHANNELS 3 Zrotation Yrotation Xrotation
          JOINT LeftToeBase
          {
            OFFSET 0.0 -5.059472 13.231529
            CHANNELS 3 Zrotation Yrotation Xrotation
            JOINT LeftToeEnd
            {
              OFFSET -0.009607 -1.647619 6.513017
              CHANNELS 3 Zrotation Yrotation Xrotation
            }
          }
        }
      }
    }
    JOINT RightLeg
    {
      OFFSET -10.047278 -8.29526 2.620317
      CHANNELS 3 Zrotation Yrotation Xrotation
      JOINT RightShin
      {
        OFFSET 1e-06 -43.362206 -0.805556
        CHANNELS 3 Zrotation Yrotation Xrotation
        JOINT RightFoot
        {
          OFFSET 2e-06 -42.117393 -3.478398
          CHANNELS 3 Zrotation Yrotation Xrotation
          JOINT RightToeBase
          {
            OFFSET -0.0 -5.079609 13.284196
            CHANNELS 3 Zrotation Yrotation Xrotation
            JOINT RightToeEnd
            {
              OFFSET 0.009532 -1.634378 6.460591
              CHANNELS 3 Zrotation Yrotation Xrotation
            }
          }
        }
      }
    }
  }
}
MOTION
Frames: 4
Frame Time: 0.03333333333333333
0.0 0.0 0.0 0.0 -0.0 0.0 103.447983 101.538048 112.02388 -43.574055 87.793625 -40.20417 0.891466 -0.547124 0.821905 -0.355344 -2.283702 -4.111858 -5.356447 -3.702561 9.36272 -2.54074 3.916045 -7.156121 2.832103 11.653527 -3.246299 -6.182599 18.119034 -10.239141 7.7e-05 -2.3e-05 6e-06 0.054712 -0.210706 -0.018732 0.809053 -3.991636 -10.690865 -0.696345 3.587811 -10.669281 -3.964054 -8.584382 13.361414 -69.589836 -1.768477 1.297026 -1.550012 -35.349342 0.599738 9.823342 -3.856438 -8.286738 -5.882108 9.861287 0.70259 -10.936873 -0.360574 7.156208 -0.0 8.774828 -1e-06 -16.484896 17.559719 5.040108 -1.844033 2.498506 -2.507279 -10.163601 4.678946 4.621111 -20.976023 -0.0 3e-06 -21.22629 2.451699 -3.594002 -1e-06 -6e-06 0.0 -1.362682 2.240799 -0.746323 -21.334917 0.584914 3.008326 -13.821216 -1e-06 3e-06 -23.887175 -0.249079 -0.839484 -59.309868 2.490362 -1.667789 -0.294025 1.679687 0.833256 -14.218211 0.093216 1.300581 -34.212055 -0.287561 0.967168 -20.033218 0.964538 1.212842 2e-06 -1e-06 -1e-06 -3.440389 0.788233 0.501656 -15.928189 -3.167309 2.999708 -6.338827 0.0 -0.0 -18.123453 3.648187 -4.905674 -3e-06 -0.0 -1e-06 -18.218334 8.917661 10.1455 31.619194 -32.5056 -40.56789 2.51722 20.092907 -0.712679 -20.085823 -5.610353 -17.42091 2.24354 -5.255036 -3.180156 14.282893 -0.826595 6.9525 -3e-06 -12.690605 -0.0 15.822783 -18.949457 2.839572 1.665665 -1.955922 -2.878299 4.727799 -4.170588 4.993925 11.020527 2e-06 -1e-06 12.109053 -3.735717 -2.866785 0.0 0.0 -1e-06 1.291984 -1.92855 -1.498089 14.800131 0.567468 3.865608 14.242574 -1.341736 -6.660659 19.631969 0.143926 -0.648244 51.066944 -1.129156 -6.48855 0.353028 -1.51115 -0.031938 20.222795 3.684309 2.316629 18.787277 4e-06 -1e-06 10.751629 -0.479869 1.397906 -0.0 -0.0 -0.0 3.273809 0.305948 -0.580111 21.486816 11.830376 2.266132 8.16293 1e-06 0.0 18.399088 -3.798987 -4.940576 3e-06 -0.0 -0.0 8.280524 17.922426 9.520239 0.058096 -0.358443 20.028887 -14.775426 12.078148 25.326294 1.898554 -1.950726 -8.699954 1e-06 -0.0 2e-06 4.728071 -1.524805 -15.242341 -0.035693 -0.458798 14.262777 -4.282473 -5.609364 5.963675 -1.446437 0.946328 -1.661874 0.0 0.0 -1e-06
0.0 0.0 0.0 0.0 -0.0 0.0 103.446365 101.690353 111.930397 -43.47823 87.754585 -40.255875 0.636517 -0.61773 0.674734 -0.38816 -2.408256 -4.199171 -5.589554 -3.725848 9.244747 -1.13583 3.564385 -5.949302 2.729065 11.156355 -3.282033 -5.757691 16.908434 -9.537921 7.7e-05 -2.4e-05 6e-06 0.055431 -0.17712 -0.021581 0.804237 -3.949564 -10.678851 -0.690154 3.61488 -10.665578 -3.992779 -8.887808 13.695543 -69.042252 -0.197921 0.41679 -1.344623 -35.773045 0.45284 9.689858 -2.634591 -9.361686 -5.882108 9.861288 0.702589 -10.936874 -0.360575 7.156209 1e-06 8.774827 1e-06 -16.453148 17.552786 5.179607 -1.844033 2.498505 -2.507279 -10.163602 4.678946 4.621111 -20.976028 -3e-06 2e-06 -21.226294 2.451698 -3.594003 0.0 -6e-06 0.0 -1.362682 2.240798 -0.746322 -21.334921 0.584909 3.008324 -13.821218 -3e-06 2e-06 -23.887175 -0.24908 -0.839482 -59.491455 2.425629 -1.623897 -0.294024 1.679688 0.833256 -14.218213 0.093215 1.300581 -34.212055 -0.287564 0.967172 -20.033218 0.964536 1.212844 0.0 0.0 -2e-06 -3.44039 0.788234 0.501656 -15.928192 -3.16731 2.999708 -6.338829 -1e-06 1e-06 -18.123453 3.648183 -4.905671 -3e-06 -0.0 -1e-06 -19.265076 8.283497 9.934523 25.451925 -33.209667 -37.231346 2.267241 20.660057 -0.916542 -20.919857 -3.609591 -13.178503 2.243543 -5.255039 -3.180159 14.282894 -0.826593 6.952508 -3e-06 -12.690608 1e-06 16.066967 -18.55612 2.732194 1.665668 -1.955921 -2.8783 4.727798 -4.170588 4.993924 11.020527 4e-06 -1e-06 12.109053 -3.735716 -2.866783 -0.0 1e-06 -0.0 1.291986 -1.92855 -1.498089 14.800134 0.567469 3.865611 14.242575 -1.341735 -6.660658 19.631969 0.143926 -0.648244 50.850563 -1.129396 -6.430248 0.353031 -1.51115 -0.031941 20.222799 3.684313 2.316633 18.787279 5e-06 1e-06 10.751631 -0.479869 1.397909 0.0 -0.0 0.0 3.273808 0.305946 -0.58011 21.48682 11.830379 2.266135 8.162929 2e-06 1e-06 18.399084 -3.798985 -4.940575 3e-06 0.0 -2e-06 8.146265 17.66534 10.341116 0.070867 -0.375511 18.500195 -14.695528 12.197483 25.465803 1.91826 -1.950422 -9.880761 0.0 -0.0 1e-06 4.587689 -0.628948 -14.227098 0.003969 -0.454897 12.534752 -3.991836 -5.866213 6.691665 -1.449414 0.955829 -1.949735 0.0 0.0 -1e-06
0.0 0.0 0.0 0.0 -0.0 0.0 103.462494 101.794304 111.802635 -40.809296 87.857712 -37.799931 0.333346 -0.68317 0.537986 -0.430992 -2.499057 -4.301847 -5.840064 -3.776248 9.158035 0.239158 3.215995 -4.327941 2.517618 10.476423 -3.34406 -5.336488 15.72677 -8.819874 7.7e-05 -2.2e-05 6e-06 0.05576 -0.141878 -0.015895 0.80134 -3.902138 -10.672363 -0.686855 3.639923 -10.662812 -4.21615 -9.086247 13.99002 -68.085274 1.133499 0.030792 -1.273672 -36.253841 0.369246 9.186218 -1.710956 -10.103359 -5.882109 9.861288 0.70259 -10.936877 -0.360575 7.156206 1e-06 8.774828 0.0 -16.468456 17.584728 5.298082 -1.844034 2.498504 -2.507278 -10.163604 4.678946 4.621109 -20.976036 -6e-06 0.0 -21.226297 2.451695 -3.594001 1e-06 -6e-06 -0.0 -1.362682 2.240798 -0.746324 -21.334925 0.584909 3.008322 -13.82122 -3e-06 -0.0 -23.887182 -0.249081 -0.839483 -59.715927 2.380767 -1.531476 -0.294024 1.679687 0.833256 -14.218215 0.093214 1.30058 -34.212063 -0.287566 0.967171 -20.033218 0.964536 1.212842 0.0 -1e-06 -1e-06 -3.44039 0.788233 0.501656 -15.928194 -3.167311 2.999706 -6.338829 -0.0 0.0 -18.123457 3.648182 -4.905673 -3e-06 0.0 -2e-06 -20.014318 7.628707 9.883758 19.799189 -33.225407 -34.489902 1.823501 21.061541 -1.177518 -21.442005 -1.743109 -8.981452 2.24354 -5.25504 -3.180159 14.282897 -0.826595 6.952507 -1e-06 -12.690607 -1e-06 16.191702 -18.054066 2.689272 1.665667 -1.955922 -2.878299 4.727804 -4.170589 4.993926 11.02053 3e-06 -1e-06 12.109056 -3.735718 -2.866787 -1e-06 0.0 0.0 1.291986 -1.928549 -1.49809 14.800136 0.567468 3.865611 14.242577 -1.341738 -6.660658 19.631973 0.143924 -0.648244 50.572861 -1.141405 -6.360671 0.353028 -1.511151 -0.031941 20.222797 3.68431 2.316634 18.787281 3e-06 0.0 10.751632 -0.47987 1.397908 -0.0 0.0 0.0 3.273807 0.305947 -0.58011 21.486822 11.830376 2.266139 8.16293 1e-06 -1e-06 18.399088 -3.798987 -4.940576 3e-06 -0.0 -1e-06 7.930751 17.594372 11.104404 0.083212 -0.406683 17.343403 -14.69673 11.963104 25.874655 1.94786 -1.962811 -10.702699 1e-06 -0.0 2e-06 4.263771 0.107772 -13.319973 0.021104 -0.46534 11.18666 -3.587436 -6.061771 7.074854 -1.453367 0.977407 -2.22681 0.0 0.0 -1e-06
0.0 0.0 0.0 0.0 -0.0 0.0 103.489433 101.849281 111.647308 -37.504707 88.088387 -34.755596 0.02703 -0.755226 0.40846 -0.488318 -2.543879 -4.405946 -6.077073 -3.869446 9.066693 1.456452 2.899584 -2.633041 2.28728 9.771802 -3.427442 -5.000452 14.629144 -7.980968 7.7e-05 -2.2e-05 6e-06 0.055599 -0.12354 -0.014417 0.799925 -3.875566 -10.681559 -0.686371 3.651015 -10.675689 -4.497999 -9.198209 14.18986 -67.050613 2.19012 0.028897 -1.205165 -36.576881 0.306009 8.436419 -0.93765 -10.390778 -5.882108 9.86129 0.702589 -10.936872 -0.360574 7.156204 -1e-06 8.774829 -1e-06 -16.491171 17.61751 5.411264 -1.844032 2.498505 -2.507278 -10.163601 4.678946 4.621109 -20.976025 -2e-06 1e-06 -21.22629 2.451698 -3.594004 0.0 -6e-06 -1e-06 -1.362682 2.2408 -0.746323 -21.334919 0.584912 3.008324 -13.821218 -1e-06 1e-06 -23.887178 -0.249078 -0.839485 -59.949574 2.381781 -1.466875 -0.294025 1.679689 0.833256 -14.218211 0.093217 1.30058 -34.212051 -0.287562 0.967169 -20.033215 0.964538 1.212843 1e-06 0.0 -1e-06 -3.440389 0.788233 0.501655 -15.928189 -3.16731 2.999708 -6.338827 1e-06 2e-06 -18.123447 3.648186 -4.905673 -3e-06 -0.0 -2e-06 -20.546366 7.041436 9.846243 15.031196 -32.822468 -32.160709 1.346326 21.210976 -1.462889 -21.426775 -0.123399 -4.879814 2.243541 -5.25504 -3.180161 14.282893 -0.826591 6.952507 -2e-06 -12.690609 -2e-06 16.225191 -17.60597 2.687726 1.665666 -1.955922 -2.878301 4.727799 -4.170586 4.993925 11.020531 4e-06 -1e-06 12.109055 -3.735716 -2.866787 0.0 -0.0 -1e-06 1.291986 -1.928552 -1.498091 14.800131 0.56747 3.865609 14.242574 -1.341736 -6.660662 19.631973 0.143928 -0.648244 50.27515 -1.123829 -6.298754 0.353028 -1.511151 -0.03194 20.222795 3.684313 2.316632 18.787279 6e-06 0.0 10.75163 -0.479868 1.397907 -0.0 0.0 0.0 3.273807 0.305948 -0.580111 21.486822 11.83038 2.266137 8.16293 2e-06 1e-06 18.399088 -3.798985 -4.940576 3e-06 0.0 -1e-06 7.632873 17.473116 11.870084 0.08984 -0.451362 16.281195 -14.658113 11.566246 26.214983 1.980467 -1.972705 -11.46592 1e-06 -0.0 1e-06 3.851259 0.528373 -12.486958 0.035315 -0.46503 10.116099 -3.1382 -6.120677 7.141484 -1.456087 0.993689 -2.45254 0.0 0.0 -2e-06
